<mxfile host="app.diagrams.net" modified="2020-10-18T18:01:01.173Z" agent="5.0 (X11; Linux x86_64) AppleWebKit/537.36 (KHTML, like Gecko) Chrome/86.0.4240.75 Safari/537.36" etag="yTQ-P4NwyFHATL00GSs9" version="13.8.0" type="github">
  <diagram id="Ksl_nPz1ilM0tRAuWTX2" name="Page-1">
    <mxGraphModel dx="862" dy="489" grid="1" gridSize="10" guides="1" tooltips="1" connect="1" arrows="1" fold="1" page="1" pageScale="1" pageWidth="1169" pageHeight="827" math="0" shadow="0">
      <root>
        <mxCell id="0" />
        <mxCell id="1" parent="0" />
        <mxCell id="msmvXzh92vyCAXEHW8qW-18" style="edgeStyle=orthogonalEdgeStyle;rounded=0;orthogonalLoop=1;jettySize=auto;html=1;entryX=0.5;entryY=0;entryDx=0;entryDy=0;" parent="1" source="msmvXzh92vyCAXEHW8qW-1" target="msmvXzh92vyCAXEHW8qW-15" edge="1">
          <mxGeometry relative="1" as="geometry" />
        </mxCell>
        <mxCell id="msmvXzh92vyCAXEHW8qW-1" value="Start" style="rounded=1;whiteSpace=wrap;html=1;" parent="1" vertex="1">
          <mxGeometry x="520" y="30" width="120" height="30" as="geometry" />
        </mxCell>
        <mxCell id="msmvXzh92vyCAXEHW8qW-6" style="edgeStyle=orthogonalEdgeStyle;rounded=0;orthogonalLoop=1;jettySize=auto;html=1;" parent="1" source="msmvXzh92vyCAXEHW8qW-3" edge="1">
          <mxGeometry relative="1" as="geometry">
            <mxPoint x="580.36" y="210" as="targetPoint" />
          </mxGeometry>
        </mxCell>
        <mxCell id="msmvXzh92vyCAXEHW8qW-3" value="N, A[N]" style="shape=card;whiteSpace=wrap;html=1;size=10;" parent="1" vertex="1">
          <mxGeometry x="520.36" y="160" width="120" height="30" as="geometry" />
        </mxCell>
        <mxCell id="msmvXzh92vyCAXEHW8qW-22" style="edgeStyle=orthogonalEdgeStyle;rounded=0;orthogonalLoop=1;jettySize=auto;html=1;" parent="1" source="msmvXzh92vyCAXEHW8qW-8" edge="1">
          <mxGeometry relative="1" as="geometry">
            <mxPoint x="690" y="250" as="targetPoint" />
            <Array as="points">
              <mxPoint x="690" y="230" />
            </Array>
          </mxGeometry>
        </mxCell>
        <mxCell id="msmvXzh92vyCAXEHW8qW-8" value="" style="rounded=0;whiteSpace=wrap;html=1;" parent="1" vertex="1">
          <mxGeometry x="520" y="210" width="120" height="30" as="geometry" />
        </mxCell>
        <mxCell id="msmvXzh92vyCAXEHW8qW-9" value="" style="endArrow=none;html=1;exitX=-0.003;exitY=0.64;exitDx=0;exitDy=0;entryX=1.001;entryY=0.664;entryDx=0;entryDy=0;entryPerimeter=0;exitPerimeter=0;" parent="1" source="msmvXzh92vyCAXEHW8qW-8" target="msmvXzh92vyCAXEHW8qW-8" edge="1">
          <mxGeometry width="50" height="50" relative="1" as="geometry">
            <mxPoint x="510.36" y="250" as="sourcePoint" />
            <mxPoint x="560.36" y="200" as="targetPoint" />
            <Array as="points">
              <mxPoint x="620.36" y="230" />
            </Array>
          </mxGeometry>
        </mxCell>
        <mxCell id="msmvXzh92vyCAXEHW8qW-10" value="" style="endArrow=none;html=1;" parent="1" source="msmvXzh92vyCAXEHW8qW-8" edge="1">
          <mxGeometry width="50" height="50" relative="1" as="geometry">
            <mxPoint x="620.36" y="220" as="sourcePoint" />
            <mxPoint x="620.36" y="210" as="targetPoint" />
          </mxGeometry>
        </mxCell>
        <mxCell id="msmvXzh92vyCAXEHW8qW-11" value="" style="endArrow=none;html=1;" parent="1" source="msmvXzh92vyCAXEHW8qW-8" edge="1">
          <mxGeometry width="50" height="50" relative="1" as="geometry">
            <mxPoint x="620.36" y="220" as="sourcePoint" />
            <mxPoint x="620.36" y="210" as="targetPoint" />
          </mxGeometry>
        </mxCell>
        <mxCell id="msmvXzh92vyCAXEHW8qW-13" value="" style="shape=link;html=1;width=2.580645161290322;" parent="1" edge="1">
          <mxGeometry width="100" relative="1" as="geometry">
            <mxPoint x="610.36" y="230" as="sourcePoint" />
            <mxPoint x="610.36" y="210" as="targetPoint" />
          </mxGeometry>
        </mxCell>
        <mxCell id="msmvXzh92vyCAXEHW8qW-14" value="&lt;br&gt;+1" style="text;html=1;strokeColor=none;fillColor=none;align=center;verticalAlign=middle;whiteSpace=wrap;rounded=0;" parent="1" vertex="1">
          <mxGeometry x="610.36" y="210" width="30" height="10" as="geometry" />
        </mxCell>
        <mxCell id="msmvXzh92vyCAXEHW8qW-17" value="" style="edgeStyle=orthogonalEdgeStyle;rounded=0;orthogonalLoop=1;jettySize=auto;html=1;" parent="1" source="msmvXzh92vyCAXEHW8qW-15" edge="1">
          <mxGeometry relative="1" as="geometry">
            <mxPoint x="580" y="160" as="targetPoint" />
          </mxGeometry>
        </mxCell>
        <mxCell id="msmvXzh92vyCAXEHW8qW-15" value="&#39;Enter dimension and array&#39;" style="shape=document;whiteSpace=wrap;html=1;boundedLbl=1;" parent="1" vertex="1">
          <mxGeometry x="520.36" y="80" width="120" height="40" as="geometry" />
        </mxCell>
        <mxCell id="msmvXzh92vyCAXEHW8qW-19" value="I&amp;lt;---1" style="text;html=1;strokeColor=none;fillColor=none;align=center;verticalAlign=middle;whiteSpace=wrap;rounded=0;" parent="1" vertex="1">
          <mxGeometry x="520" y="210" width="90" height="20" as="geometry" />
        </mxCell>
        <mxCell id="msmvXzh92vyCAXEHW8qW-21" value="N-1" style="text;html=1;strokeColor=none;fillColor=none;align=center;verticalAlign=middle;whiteSpace=wrap;rounded=0;" parent="1" vertex="1">
          <mxGeometry x="560" y="230" width="40" height="10" as="geometry" />
        </mxCell>
        <mxCell id="msmvXzh92vyCAXEHW8qW-29" style="edgeStyle=orthogonalEdgeStyle;rounded=0;orthogonalLoop=1;jettySize=auto;html=1;exitX=0.5;exitY=1;exitDx=0;exitDy=0;entryX=0.472;entryY=0.02;entryDx=0;entryDy=0;entryPerimeter=0;" parent="1" source="msmvXzh92vyCAXEHW8qW-23" target="msmvXzh92vyCAXEHW8qW-27" edge="1">
          <mxGeometry relative="1" as="geometry" />
        </mxCell>
        <mxCell id="msmvXzh92vyCAXEHW8qW-23" value="tmp=A[I]&lt;br&gt;J=I" style="rounded=0;whiteSpace=wrap;html=1;" parent="1" vertex="1">
          <mxGeometry x="650" y="250" width="80" height="30" as="geometry" />
        </mxCell>
        <mxCell id="msmvXzh92vyCAXEHW8qW-33" style="edgeStyle=orthogonalEdgeStyle;rounded=0;orthogonalLoop=1;jettySize=auto;html=1;exitX=1;exitY=0.75;exitDx=0;exitDy=0;entryX=0.25;entryY=0;entryDx=0;entryDy=0;" parent="1" source="msmvXzh92vyCAXEHW8qW-27" target="msmvXzh92vyCAXEHW8qW-32" edge="1">
          <mxGeometry relative="1" as="geometry" />
        </mxCell>
        <mxCell id="msmvXzh92vyCAXEHW8qW-38" style="edgeStyle=orthogonalEdgeStyle;rounded=0;orthogonalLoop=1;jettySize=auto;html=1;entryX=0.5;entryY=0;entryDx=0;entryDy=0;" parent="1" source="msmvXzh92vyCAXEHW8qW-27" target="msmvXzh92vyCAXEHW8qW-37" edge="1">
          <mxGeometry relative="1" as="geometry" />
        </mxCell>
        <mxCell id="msmvXzh92vyCAXEHW8qW-27" value="(J&amp;gt;0) and (tmp&amp;lt;A[J-1])" style="shape=hexagon;perimeter=hexagonPerimeter2;whiteSpace=wrap;html=1;fixedSize=1;" parent="1" vertex="1">
          <mxGeometry x="620" y="300" width="150" height="40" as="geometry" />
        </mxCell>
        <mxCell id="msmvXzh92vyCAXEHW8qW-32" value="&lt;span&gt;A[J]=A[J-1]&lt;br&gt;J=J-1&lt;br&gt;&lt;/span&gt;" style="whiteSpace=wrap;html=1;aspect=fixed;" parent="1" vertex="1">
          <mxGeometry x="770" y="340" width="70" height="70" as="geometry" />
        </mxCell>
        <mxCell id="msmvXzh92vyCAXEHW8qW-36" value="" style="endArrow=classic;html=1;exitX=1;exitY=0.429;exitDx=0;exitDy=0;exitPerimeter=0;entryX=1;entryY=0.25;entryDx=0;entryDy=0;rounded=0;" parent="1" source="msmvXzh92vyCAXEHW8qW-32" target="msmvXzh92vyCAXEHW8qW-27" edge="1">
          <mxGeometry width="50" height="50" relative="1" as="geometry">
            <mxPoint x="890" y="370" as="sourcePoint" />
            <mxPoint x="800" y="310" as="targetPoint" />
            <Array as="points">
              <mxPoint x="880" y="370" />
              <mxPoint x="880" y="310" />
            </Array>
          </mxGeometry>
        </mxCell>
        <mxCell id="msmvXzh92vyCAXEHW8qW-37" value="A[J]=tmp" style="rounded=0;whiteSpace=wrap;html=1;" parent="1" vertex="1">
          <mxGeometry x="665" y="365" width="60" height="20" as="geometry" />
        </mxCell>
        <mxCell id="msmvXzh92vyCAXEHW8qW-39" value="" style="rounded=0;whiteSpace=wrap;html=1;" parent="1" vertex="1">
          <mxGeometry x="399.64" y="290" width="120" height="30" as="geometry" />
        </mxCell>
        <mxCell id="msmvXzh92vyCAXEHW8qW-40" value="" style="endArrow=none;html=1;exitX=-0.003;exitY=0.64;exitDx=0;exitDy=0;entryX=1.001;entryY=0.664;entryDx=0;entryDy=0;entryPerimeter=0;exitPerimeter=0;" parent="1" source="msmvXzh92vyCAXEHW8qW-39" target="msmvXzh92vyCAXEHW8qW-39" edge="1">
          <mxGeometry width="50" height="50" relative="1" as="geometry">
            <mxPoint x="390" y="330" as="sourcePoint" />
            <mxPoint x="440" y="280" as="targetPoint" />
            <Array as="points">
              <mxPoint x="500" y="310" />
            </Array>
          </mxGeometry>
        </mxCell>
        <mxCell id="msmvXzh92vyCAXEHW8qW-41" value="" style="endArrow=none;html=1;" parent="1" source="msmvXzh92vyCAXEHW8qW-39" edge="1">
          <mxGeometry width="50" height="50" relative="1" as="geometry">
            <mxPoint x="500" y="300" as="sourcePoint" />
            <mxPoint x="500.0000000000001" y="290" as="targetPoint" />
          </mxGeometry>
        </mxCell>
        <mxCell id="msmvXzh92vyCAXEHW8qW-42" value="" style="endArrow=none;html=1;" parent="1" source="msmvXzh92vyCAXEHW8qW-39" edge="1">
          <mxGeometry width="50" height="50" relative="1" as="geometry">
            <mxPoint x="500" y="300" as="sourcePoint" />
            <mxPoint x="500.0000000000001" y="290" as="targetPoint" />
          </mxGeometry>
        </mxCell>
        <mxCell id="msmvXzh92vyCAXEHW8qW-43" value="" style="shape=link;html=1;width=2.580645161290322;" parent="1" edge="1">
          <mxGeometry width="100" relative="1" as="geometry">
            <mxPoint x="490.0000000000001" y="310" as="sourcePoint" />
            <mxPoint x="490.0000000000001" y="290" as="targetPoint" />
          </mxGeometry>
        </mxCell>
        <mxCell id="msmvXzh92vyCAXEHW8qW-44" value="&lt;br&gt;+1" style="text;html=1;strokeColor=none;fillColor=none;align=center;verticalAlign=middle;whiteSpace=wrap;rounded=0;" parent="1" vertex="1">
          <mxGeometry x="490" y="290" width="30" height="10" as="geometry" />
        </mxCell>
        <mxCell id="msmvXzh92vyCAXEHW8qW-45" value="I&amp;lt;---0" style="text;html=1;strokeColor=none;fillColor=none;align=center;verticalAlign=middle;whiteSpace=wrap;rounded=0;" parent="1" vertex="1">
          <mxGeometry x="399.64" y="290" width="90" height="20" as="geometry" />
        </mxCell>
        <mxCell id="msmvXzh92vyCAXEHW8qW-46" value="N-1" style="text;html=1;strokeColor=none;fillColor=none;align=center;verticalAlign=middle;whiteSpace=wrap;rounded=0;" parent="1" vertex="1">
          <mxGeometry x="439.64" y="310" width="40" height="10" as="geometry" />
        </mxCell>
        <mxCell id="msmvXzh92vyCAXEHW8qW-47" value="" style="endArrow=classic;html=1;entryX=0.75;entryY=0;entryDx=0;entryDy=0;rounded=0;" parent="1" target="msmvXzh92vyCAXEHW8qW-45" edge="1">
          <mxGeometry width="50" height="50" relative="1" as="geometry">
            <mxPoint x="580" y="241" as="sourcePoint" />
            <mxPoint x="550" y="310" as="targetPoint" />
            <Array as="points">
              <mxPoint x="580" y="270" />
              <mxPoint x="467" y="270" />
            </Array>
          </mxGeometry>
        </mxCell>
        <mxCell id="msmvXzh92vyCAXEHW8qW-48" value="" style="endArrow=classic;html=1;rounded=0;" parent="1" edge="1">
          <mxGeometry width="50" height="50" relative="1" as="geometry">
            <mxPoint x="519.64" y="315" as="sourcePoint" />
            <mxPoint x="539.64" y="355" as="targetPoint" />
            <Array as="points">
              <mxPoint x="539.64" y="315" />
            </Array>
          </mxGeometry>
        </mxCell>
        <mxCell id="msmvXzh92vyCAXEHW8qW-49" value="A[I]" style="whiteSpace=wrap;html=1;aspect=fixed;" parent="1" vertex="1">
          <mxGeometry x="519.64" y="355" width="40" height="40" as="geometry" />
        </mxCell>
        <mxCell id="msmvXzh92vyCAXEHW8qW-50" value="" style="endArrow=classic;html=1;exitX=1;exitY=0.5;exitDx=0;exitDy=0;entryX=1.056;entryY=0.971;entryDx=0;entryDy=0;entryPerimeter=0;rounded=0;" parent="1" source="msmvXzh92vyCAXEHW8qW-49" target="msmvXzh92vyCAXEHW8qW-44" edge="1">
          <mxGeometry width="50" height="50" relative="1" as="geometry">
            <mxPoint x="560.36" y="400" as="sourcePoint" />
            <mxPoint x="560" y="300" as="targetPoint" />
            <Array as="points">
              <mxPoint x="580" y="375" />
              <mxPoint x="580" y="300" />
            </Array>
          </mxGeometry>
        </mxCell>
        <mxCell id="msmvXzh92vyCAXEHW8qW-51" value="" style="endArrow=classic;html=1;exitX=0.5;exitY=1;exitDx=0;exitDy=0;" parent="1" source="msmvXzh92vyCAXEHW8qW-46" target="msmvXzh92vyCAXEHW8qW-52" edge="1">
          <mxGeometry width="50" height="50" relative="1" as="geometry">
            <mxPoint x="450" y="480" as="sourcePoint" />
            <mxPoint x="460" y="370" as="targetPoint" />
          </mxGeometry>
        </mxCell>
        <mxCell id="msmvXzh92vyCAXEHW8qW-52" value="Stop" style="rounded=1;whiteSpace=wrap;html=1;" parent="1" vertex="1">
          <mxGeometry x="424.46" y="340" width="70.36" height="25" as="geometry" />
        </mxCell>
      </root>
    </mxGraphModel>
  </diagram>
</mxfile>
